<?xml version="1.0"?>
<svg xmlns="http://www.w3.org/2000/svg" id="Layer_3" enable-background="new 0 0 64 64" height="512px" viewBox="0 0 64 64" width="512px" class=""><g><path d="m50 21c1.654 0 3-1.346 3-3 0-1.302-.839-2.402-2-2.816v-3.184c0-2.757-2.243-5-5-5h-6c-2.757 0-5 2.243-5 5v3.184c-1.161.414-2 1.514-2 2.816 0 1.654 1.346 3 3 3h1.35c.285.803.734 1.527 1.31 2.132-3.22.627-5.66 3.467-5.66 6.868v4c0 .552.447 1 1 1h18c.553 0 1-.448 1-1v-4c0-3.401-2.44-6.241-5.66-6.868.576-.605 1.025-1.329 1.31-2.132zm0-2h-1v-2h1c.552 0 1 .449 1 1s-.448 1-1 1zm-5 6c0 1.103-.897 2-2 2s-2-.897-2-2zm-2-2c-2.206 0-4-1.794-4-4v-2h1c1.612 0 4.21-.876 5.747-2.374.329.531.755.996 1.253 1.37v3.004c0 2.206-1.794 4-4 4zm-6-11c0-1.654 1.346-3 3-3h6c1.654 0 3 1.346 3 3v2.829c-1.164-.413-2-1.525-2-2.829 0-.552-.447-1-1-1s-1 .448-1 1c0 1.391-3.025 3-5 3h-3zm-1 7c-.552 0-1-.449-1-1s.448-1 1-1h1v2zm15 11v3h-2v-4h-2v4h-8v-4h-2v4h-2v-3c0-2.418 1.726-4.439 4.01-4.9.055 2.159 1.818 3.9 3.99 3.9s3.935-1.741 3.99-3.9c2.284.461 4.01 2.482 4.01 4.9z" data-original="#000000" class="active-path" data-old_color="#000000" fill="#FFFFFF"/><path d="m43 1c-11.028 0-20 8.972-20 20s8.972 20 20 20 20-8.972 20-20-8.972-20-20-20zm0 38c-9.925 0-18-8.075-18-18s8.075-18 18-18 18 8.075 18 18-8.075 18-18 18z" data-original="#000000" class="active-path" data-old_color="#000000" fill="#FFFFFF"/><path d="m24.707 49.293c-.218-.219-.527-.324-.829-.286-.306.038-.577.214-.735.478l-2.341 3.902-10.19-10.188 3.902-2.341c.264-.158.44-.43.478-.735.038-.306-.067-.611-.285-.829l-6-6c-.391-.391-1.023-.391-1.414 0l-4.586 4.586c-1.101 1.099-1.707 2.563-1.707 4.12s.606 3.021 1.707 4.121l15.172 15.172c1.085 1.085 2.587 1.707 4.121 1.707s3.036-.622 4.121-1.707l4.586-4.586c.391-.391.391-1.023 0-1.414zm0 10.586c-.713.712-1.699 1.121-2.707 1.121s-1.994-.409-2.707-1.121l-15.172-15.172c-.723-.723-1.121-1.685-1.121-2.707s.398-1.984 1.121-2.707l3.879-3.879 4.388 4.387-3.902 2.341c-.264.158-.44.43-.478.735-.038.306.067.611.285.829l12 12c.218.218.521.32.829.286.306-.038.577-.214.735-.478l2.341-3.902 4.388 4.388z" data-original="#000000" class="active-path" data-old_color="#000000" fill="#FFFFFF"/><path d="m32 47c-1.654 0-3 1.346-3 3s1.346 3 3 3 3-1.346 3-3-1.346-3-3-3zm0 4c-.552 0-1-.449-1-1s.448-1 1-1 1 .449 1 1-.448 1-1 1z" data-original="#000000" class="active-path" data-old_color="#000000" fill="#000000"/><path d="m41 43c-2.206 0-4 1.794-4 4s1.794 4 4 4 4-1.794 4-4-1.794-4-4-4zm0 6c-1.103 0-2-.897-2-2s.897-2 2-2 2 .897 2 2-.897 2-2 2z" data-original="#000000" class="active-path" data-old_color="#000000" fill="#FFFFFF"/></g> </svg>
